<svg width="100" height="100" viewBox="0 0 100 100" fill="none" xmlns="http://www.w3.org/2000/svg">
<g clip-path="url(#clip0_1_2)">
<path d="M28.375 0.9125C28.9607 0.328319 29.754 0.000175744 30.5813 0L69.4188 0C70.246 0.000175744 71.0393 0.328319 71.625 0.9125L99.0875 28.375C99.6717 28.9607 99.9998 29.754 100 30.5813V69.4188C99.9998 70.246 99.6717 71.0393 99.0875 71.625L71.625 99.0875C71.0393 99.6717 70.246 99.9998 69.4188 100H30.5813C29.754 99.9998 28.9607 99.6717 28.375 99.0875L0.9125 71.625C0.328319 71.0393 0.000175744 70.246 0 69.4188L0 30.5813C0.000175744 29.754 0.328319 28.9607 0.9125 28.375L28.375 0.9125ZM31.875 6.25L6.25 31.875V68.125L31.875 93.75H68.125L93.75 68.125V31.875L68.125 6.25H31.875Z" fill="url(#paint0_linear_1_2)"/>
<circle cx="30.5" cy="49.5" r="3.5" fill="#00FFEA"/>
<circle cx="68.5" cy="49.5" r="3.5" fill="#00B3FF"/>
<circle cx="49.5" cy="49.5" r="3.5" fill="#00E6FF"/>
</g>
<defs>
<linearGradient id="paint0_linear_1_2" x1="100" y1="73.5" x2="-1.91718e-06" y2="13" gradientUnits="userSpaceOnUse">
<stop stop-color="#004F81"/>
<stop offset="1" stop-color="#00E6FF"/>
</linearGradient>
<clipPath id="clip0_1_2">
<rect width="100" height="100" fill="white"/>
</clipPath>
</defs>
</svg>
