<svg width="2024" height="960" viewBox="0 0 2024 960" fill="none" xmlns="http://www.w3.org/2000/svg">
<rect width="2024" height="960" fill="#1E1E1E"/>
<g clip-path="url(#clip0_0_1)">
<rect width="2024" height="960" fill="black"/>
<rect x="710" y="315" width="148" height="31" rx="4" fill="white"/>
<ellipse cx="435" cy="377.5" rx="234" ry="234.5" fill="white"/>
<rect x="710" y="327" width="36" height="147" fill="white"/>
<path d="M676 136V663L445 385.378L676 136Z" fill="black"/>
<path d="M710 466H868L841.445 498H710V466Z" fill="url(#paint0_linear_0_1)"/>
<rect x="973" y="315" width="34" height="183" fill="white"/>
<path d="M1007 498L849 498L875.555 466H1007V498Z" fill="url(#paint1_linear_0_1)"/>
<path d="M1007 371L1083 414.471V445L1007 402.525V371Z" fill="white"/>
<rect x="1083" y="315" width="34" height="183" fill="white"/>
<circle cx="435.5" cy="377.5" r="175.5" fill="black"/>
<rect x="317" y="426" width="86" height="37" fill="white"/>
<rect x="487" y="290" width="37" height="173" fill="white"/>
<rect x="417" y="364" width="56" height="33" fill="white"/>
<rect x="365" y="290" width="38" height="173" fill="white"/>
<path d="M1117 544C1119.76 544 1122 541.761 1122 539C1122 536.239 1119.76 534 1117 534V544ZM473 544H1117V534H473V544Z" fill="url(#paint2_linear_0_1)"/>
<path d="M1309 306H1347.05L1437 427H1396.34L1309 306Z" fill="white"/>
<path d="M1227 306H1264.76L1354 427H1313.66L1227 306Z" fill="#0022FF"/>
<path d="M1546 306H1583.95L1684 547H1648.12L1546 306Z" fill="white"/>
<path d="M1437 426H1394.84L1305 547H1345.61L1437 426Z" fill="white"/>
<path d="M1353 426H1311.16L1222 547H1262.3L1353 426Z" fill="#0022FF"/>
<path d="M1483.82 306H1521L1444.58 415L1425 388.095L1483.82 306Z" fill="white"/>
<path d="M1759.68 304H1798L1699.85 544L1680 498.318L1759.68 304Z" fill="white"/>
<path d="M1483.82 547H1521L1444.58 438L1425 464.905L1483.82 547Z" fill="white"/>
<line x1="1456.5" y1="533" x2="1456.5" y2="532" stroke="black"/>
<path d="M477.28 774.48H494.92V776H475.52V747.44H494.72V748.96H477.28V760.4H493.68V761.92H477.28V774.48ZM531.061 776V755.44H532.581V759.64H532.661C533.301 757.04 536.021 754.96 539.101 754.96C543.021 754.96 544.861 757.2 545.301 759.32H545.381C546.581 756.52 548.581 754.96 551.901 754.96C555.621 754.96 558.341 757.12 558.341 761.96V776H556.821V761.92C556.821 756.68 553.101 756.28 551.901 756.28C548.181 756.28 545.461 758.92 545.461 763.84V776H543.941V761.92C543.941 756.76 540.421 756.28 539.101 756.28C536.181 756.28 532.581 758.56 532.581 763.84V776H531.061ZM606.016 775.16C611.416 775.16 613.416 769.96 613.416 765.24C613.416 760.68 610.936 756.28 606.016 756.28C600.656 756.28 598.176 760.08 598.176 765.24C598.176 770.28 600.416 775.16 606.016 775.16ZM596.616 776V747.44H598.136V759.8H598.216C599.376 756.6 602.696 754.96 606.016 754.96C612.056 754.96 614.936 759.52 614.936 765.24C614.936 775.04 608.856 776.48 606.016 776.48C600.616 776.48 598.536 772.48 598.216 771.4H598.136V776H596.616ZM665.521 768.16V764.32C664.321 765.68 661.041 765.52 658.081 765.92C654.481 766.32 652.441 767.6 652.441 770.68C652.441 773.16 654.241 775.16 657.841 775.16C664.761 775.16 665.521 769.24 665.521 768.16ZM667.041 760.32V772.2C667.041 773.4 667.041 774.68 668.401 774.68C668.681 774.68 669.041 774.64 669.521 774.56V775.84C669.081 775.92 668.681 776 668.281 776C665.881 776 665.521 774.68 665.521 773V771.92H665.441C664.481 774.36 661.721 776.48 657.801 776.48C653.921 776.48 650.921 775 650.921 770.68C650.921 765.88 655.081 764.88 658.481 764.6C665.281 764.12 665.561 763.68 665.561 760.32C665.561 759.4 664.521 756.28 659.841 756.28C656.161 756.28 653.721 758.2 653.521 761.76H652.001C652.201 757.24 655.001 754.96 659.841 754.96C663.441 754.96 667.041 756.08 667.041 760.32ZM706.799 755.44V760H706.919C707.719 757.32 711.079 755.16 714.799 755.32V756.84C713.199 756.64 710.959 757.04 709.119 758.84C707.599 760.4 706.959 761.68 706.799 764.76V776H705.279V755.44H706.799ZM749.89 776V747.44H751.41V766.36L764.09 755.44H766.29L757.29 763.12L766.93 776H764.85L756.09 764.28L751.41 768.24V776H749.89ZM845.296 765.72C845.296 759.88 848.696 754.96 854.736 754.96C860.776 754.96 864.176 759.88 864.176 765.72C864.176 771.56 860.776 776.48 854.736 776.48C848.696 776.48 845.296 771.56 845.296 765.72ZM846.816 765.72C846.816 770.64 849.576 775.16 854.736 775.16C859.896 775.16 862.656 770.64 862.656 765.72C862.656 760.8 859.896 756.28 854.736 756.28C849.576 756.28 846.816 760.8 846.816 765.72ZM901.138 776V755.44H902.658V759.84H902.738C903.778 756.76 906.898 754.96 910.098 754.96C917.338 754.96 917.418 760.76 917.418 763.28V776H915.898V763C915.898 760.88 915.658 756.28 910.058 756.28C905.458 756.28 902.658 759.84 902.658 764.88V776H901.138ZM1013.45 768.16V764.32C1012.25 765.68 1008.97 765.52 1006.01 765.92C1002.41 766.32 1000.37 767.6 1000.37 770.68C1000.37 773.16 1002.17 775.16 1005.77 775.16C1012.69 775.16 1013.45 769.24 1013.45 768.16ZM1014.97 760.32V772.2C1014.97 773.4 1014.97 774.68 1016.33 774.68C1016.61 774.68 1016.97 774.64 1017.45 774.56V775.84C1017.01 775.92 1016.61 776 1016.21 776C1013.81 776 1013.45 774.68 1013.45 773V771.92H1013.37C1012.41 774.36 1009.65 776.48 1005.73 776.48C1001.85 776.48 998.85 775 998.85 770.68C998.85 765.88 1003.01 764.88 1006.41 764.6C1013.21 764.12 1013.49 763.68 1013.49 760.32C1013.49 759.4 1012.45 756.28 1007.77 756.28C1004.09 756.28 1001.65 758.2 1001.45 761.76H999.93C1000.13 757.24 1002.93 754.96 1007.77 754.96C1011.37 754.96 1014.97 756.08 1014.97 760.32ZM1097.74 776V755.44H1099.26V759.84H1099.34C1100.38 756.76 1103.5 754.96 1106.7 754.96C1113.94 754.96 1114.02 760.76 1114.02 763.28V776H1112.5V763C1112.5 760.88 1112.26 756.28 1106.66 756.28C1102.06 756.28 1099.26 759.84 1099.26 764.88V776H1097.74ZM1169.08 765.92H1152.48C1152.4 770.76 1154.96 775.16 1160.04 775.16C1163.92 775.16 1166.68 772.84 1167.4 769.04H1168.92C1168.12 773.84 1164.92 776.48 1160.04 776.48C1154.04 776.48 1150.88 771.76 1150.96 766.08C1150.88 760.44 1153.84 754.96 1160.04 754.96C1166.48 754.96 1169.36 760.04 1169.08 765.92ZM1152.48 764.6H1167.56C1167.48 760.28 1164.76 756.28 1160.04 756.28C1155.48 756.28 1152.8 760.52 1152.48 764.6ZM1205.34 755.44L1211.14 774.24H1211.22L1216.82 755.44H1218.86L1224.5 774.24H1224.58L1230.34 755.44H1232.02L1225.42 776H1223.54L1217.9 757.36H1217.82L1212.14 776H1210.22L1203.7 755.44H1205.34ZM1312.48 755.44H1314V778.2C1314 780.96 1313.32 783.36 1309.79 783.36C1309.39 783.36 1308.91 783.36 1308.51 783.32V782C1308.75 782.04 1309.07 782.08 1309.51 782.08C1311.68 782.08 1312.48 781.2 1312.48 778.08V755.44ZM1314 751.56H1312.48V747.44H1314V751.56ZM1351.27 765.72C1351.27 759.88 1354.67 754.96 1360.71 754.96C1366.75 754.96 1370.15 759.88 1370.15 765.72C1370.15 771.56 1366.75 776.48 1360.71 776.48C1354.67 776.48 1351.27 771.56 1351.27 765.72ZM1352.79 765.72C1352.79 770.64 1355.55 775.16 1360.71 775.16C1365.87 775.16 1368.63 770.64 1368.63 765.72C1368.63 760.8 1365.87 756.28 1360.71 756.28C1355.55 756.28 1352.79 760.8 1352.79 765.72ZM1423.4 755.44V776H1421.88V771.6H1421.8C1420.76 774.68 1417.64 776.48 1414.44 776.48C1407.2 776.48 1407.12 770.68 1407.12 768.16V755.44H1408.64V768.44C1408.64 770.56 1408.88 775.16 1414.48 775.16C1419.08 775.16 1421.88 771.6 1421.88 766.56V755.44H1423.4ZM1462.78 755.44V760H1462.9C1463.7 757.32 1467.06 755.16 1470.78 755.32V756.84C1469.18 756.64 1466.94 757.04 1465.1 758.84C1463.58 760.4 1462.94 761.68 1462.78 764.76V776H1461.26V755.44H1462.78ZM1505.79 776V755.44H1507.31V759.84H1507.39C1508.43 756.76 1511.55 754.96 1514.75 754.96C1521.99 754.96 1522.07 760.76 1522.07 763.28V776H1520.55V763C1520.55 760.88 1520.31 756.28 1514.71 756.28C1510.11 756.28 1507.31 759.84 1507.31 764.88V776H1505.79ZM1577.13 765.92H1560.53C1560.45 770.76 1563.01 775.16 1568.09 775.16C1571.97 775.16 1574.73 772.84 1575.45 769.04H1576.97C1576.17 773.84 1572.97 776.48 1568.09 776.48C1562.09 776.48 1558.93 771.76 1559.01 766.08C1558.93 760.44 1561.89 754.96 1568.09 754.96C1574.53 754.96 1577.41 760.04 1577.13 765.92ZM1560.53 764.6H1575.61C1575.53 760.28 1572.81 756.28 1568.09 756.28C1563.53 756.28 1560.85 760.52 1560.53 764.6ZM1620.19 775.88L1611.59 755.44H1613.39L1621.03 774.2L1628.07 755.44H1629.79L1620.99 778.2C1620.15 780.2 1619.47 781.76 1618.59 782.44C1617.51 783.28 1616.11 783.36 1613.79 783.36V782.04C1615.95 782.04 1617.03 781.76 1618.07 780.72C1618.67 780.12 1619.23 778.6 1620.19 775.88Z" fill="white"/>
<path d="M1838.43 552.904V527.272H1832.43V520.936H1851.92V527.272H1846.26V552.904H1838.43ZM1854.34 552.904V520.936H1862.07V533.08H1867.16V520.936H1874.98V552.904H1867.16V539.752H1862.07V552.904H1854.34Z" fill="white"/>
<line x1="56.5027" y1="727.852" x2="130.503" y2="655.427" stroke="#0019B9" stroke-width="10"/>
<line y1="-5" x2="103.544" y2="-5" transform="matrix(0.714669 0.699463 0.699463 -0.714669 60 720.404)" stroke="#0019B9" stroke-width="10"/>
<line y1="-5" x2="103.544" y2="-5" transform="matrix(-0.714669 -0.699463 -0.699463 0.714669 341 731.426)" stroke="#0019B9" stroke-width="10"/>
<line x1="344.497" y1="723.978" x2="270.497" y2="796.403" stroke="#0019B9" stroke-width="10"/>
<line x1="253.58" y1="610.007" x2="138.58" y2="872.432" stroke="#0019B9" stroke-width="10"/>
<path d="M53.5 722.5L133.5 794V960H53.5V722.5Z" fill="url(#paint3_linear_0_1)"/>
<path d="M347 720L267 791.5V957.5H347V720Z" fill="url(#paint4_linear_0_1)"/>
<path d="M135.558 871.441L257 610V960H135.558V871.441Z" fill="url(#paint5_linear_0_1)"/>
<path d="M1809.05 182L1804 209" stroke="#0019B9" stroke-width="7" stroke-linecap="round"/>
<path d="M1809.05 182L1832.05 203" stroke="#0019B9" stroke-width="7" stroke-linecap="round"/>
<path d="M1907 76L1818 172" stroke="#0019B9" stroke-width="7" stroke-linecap="round"/>
<path d="M1930 97L1842 193" stroke="#0019B9" stroke-width="7" stroke-linecap="round"/>
<path d="M1907 76L1930 97" stroke="#0019B9" stroke-width="7" stroke-linecap="round"/>
<path d="M1818 172L1841 193" stroke="#0019B9" stroke-width="7" stroke-linecap="round"/>
<path d="M1804.05 209L1832.05 203" stroke="#0019B9" stroke-width="7" stroke-linecap="round"/>
<path d="M1800.5 210L1836 202.5V318L1800.5 328.5V210Z" fill="url(#paint6_linear_0_1)"/>
<path d="M1840 196.5L1933 97V311.5H1840V196.5Z" fill="url(#paint7_linear_0_1)"/>
</g>
<defs>
<linearGradient id="paint0_linear_0_1" x1="710" y1="482" x2="868" y2="482" gradientUnits="userSpaceOnUse">
<stop offset="0.215" stop-color="white"/>
<stop offset="1" stop-color="white" stop-opacity="0.7"/>
</linearGradient>
<linearGradient id="paint1_linear_0_1" x1="849" y1="482" x2="1007" y2="482" gradientUnits="userSpaceOnUse">
<stop stop-color="white" stop-opacity="0.7"/>
<stop offset="0.76" stop-color="white"/>
</linearGradient>
<linearGradient id="paint2_linear_0_1" x1="473" y1="539.5" x2="1117" y2="539.5" gradientUnits="userSpaceOnUse">
<stop offset="0.245" stop-color="white" stop-opacity="0"/>
<stop offset="1" stop-color="white"/>
</linearGradient>
<linearGradient id="paint3_linear_0_1" x1="91.5" y1="729.5" x2="91.5" y2="961.5" gradientUnits="userSpaceOnUse">
<stop stop-color="#0019B9" stop-opacity="0.6"/>
<stop offset="1" stop-color="#0019B9" stop-opacity="0"/>
</linearGradient>
<linearGradient id="paint4_linear_0_1" x1="309" y1="727" x2="309" y2="959" gradientUnits="userSpaceOnUse">
<stop stop-color="#0019B9" stop-opacity="0.6"/>
<stop offset="1" stop-color="#0019B9" stop-opacity="0"/>
</linearGradient>
<linearGradient id="paint5_linear_0_1" x1="196.279" y1="610" x2="196.279" y2="960" gradientUnits="userSpaceOnUse">
<stop stop-color="#0019B9"/>
<stop offset="1" stop-color="#0019B9" stop-opacity="0"/>
</linearGradient>
<linearGradient id="paint6_linear_0_1" x1="1817.75" y1="201.5" x2="1817.75" y2="325.5" gradientUnits="userSpaceOnUse">
<stop stop-color="#0019B9" stop-opacity="0.55"/>
<stop offset="1" stop-color="#0019B9" stop-opacity="0"/>
</linearGradient>
<linearGradient id="paint7_linear_0_1" x1="1879.25" y1="191" x2="1879.25" y2="315" gradientUnits="userSpaceOnUse">
<stop stop-color="#0019B9" stop-opacity="0.8"/>
<stop offset="1" stop-color="#0019B9" stop-opacity="0"/>
</linearGradient>
<clipPath id="clip0_0_1">
<rect width="2024" height="960" fill="white"/>
</clipPath>
</defs>
</svg>
